<?xml version="1.0" standalone="no"?>
<!DOCTYPE svg PUBLIC "-//W3C//DTD SVG 20010904//EN"
 "http://www.w3.org/TR/2001/REC-SVG-20010904/DTD/svg10.dtd">
<svg version="1.0" xmlns="http://www.w3.org/2000/svg"
 width="256.000000pt" height="256.000000pt" viewBox="0 0 256.000000 256.000000"
 preserveAspectRatio="xMidYMid meet">
<metadata>
Created by potrace 1.11, written by Peter Selinger 2001-2013
</metadata>
<g transform="translate(0.000000,256.000000) scale(0.100000,-0.100000)"
fill="#000000" stroke="none">
<path d="M288 2539 c-41 -6 -85 -37 -92 -64 -3 -11 -6 -551 -6 -1200 0 -1283
-3 -1206 53 -1237 17 -9 258 -12 1040 -13 l1019 0 31 28 32 28 3 1187 c2 1172
2 1187 -18 1220 -11 18 -32 37 -48 43 -29 12 -1947 19 -2014 8z m125 -98 c4 0
19 -13 32 -27 35 -38 34 -87 -4 -125 -48 -47 -116 -35 -145 25 -18 39 -15 68
13 100 25 29 52 36 104 27z m1807 -6 c61 -31 71 -102 21 -147 -41 -37 -81 -37
-122 0 -51 46 -39 120 24 147 41 18 42 18 77 0z m-1215 -697 c104 -55 142
-182 88 -295 -18 -40 -75 -89 -120 -105 -39 -14 -41 -21 -9 -36 24 -10 86 -91
86 -110 0 -6 4 -12 8 -14 6 -2 97 -144 146 -225 5 -10 -6 -13 -48 -13 l-54 0
-33 53 c-18 28 -42 68 -52 87 -64 116 -117 184 -156 199 -33 14 -117 20 -133
9 -10 -5 -13 -51 -13 -175 l0 -168 -47 -3 -46 -3 0 417 1 416 166 -4 c156 -4
169 -6 216 -30z m574 -50 c40 -101 45 -113 65 -160 9 -20 16 -38 16 -41 0 -2
8 -22 17 -43 9 -22 17 -41 18 -44 3 -10 17 -45 30 -75 7 -16 38 -95 70 -175
31 -80 60 -154 65 -165 14 -31 70 -175 70 -181 0 -3 -18 -4 -41 -2 -38 3 -42
6 -61 53 -11 28 -24 59 -29 70 -10 23 -280 698 -304 760 -5 11 -9 23 -9 27 -1
3 -4 10 -8 14 -5 4 -8 16 -8 26 0 14 8 18 38 18 l38 0 33 -82z m-186 -166 c36
-32 8 -102 -42 -102 -40 0 -64 22 -64 58 0 62 57 86 106 44z m0 -490 c38 -33
9 -102 -43 -102 -69 0 -91 95 -26 119 24 9 43 5 69 -17z m-976 -739 c59 -28
71 -97 24 -144 -34 -33 -69 -37 -112 -12 -29 17 -36 30 -45 77 -6 36 45 92 89
95 5 1 25 -6 44 -16z m1818 -8 c35 -28 47 -74 28 -112 -35 -73 -137 -69 -166
6 -36 89 64 167 138 106z"/>
<path d="M722 1675 c-4 -5 -7 -74 -7 -152 0 -163 -13 -146 108 -144 104 1 164
35 187 106 30 91 -16 175 -105 191 -61 11 -176 10 -183 -1z"/>
</g>
</svg>
